<?xml version="1.0" encoding="UTF-8" standalone="no"?>
<!-- Generator: Adobe Illustrator 16.0.0, SVG Export Plug-In . SVG Version: 6.00 Build 0)  -->

<svg
   version="1.1"
   id="Layer_1"
   x="0px"
   y="0px"
   width="600"
   height="359.004"
   viewBox="0 0 600 359.004"
   enable-background="new 0 0 750 471"
   xml:space="preserve"
   sodipodi:docname="maestro.svg"
   inkscape:version="1.1.1 (3bf5ae0d25, 2021-09-20)"
   xmlns:inkscape="http://www.inkscape.org/namespaces/inkscape"
   xmlns:sodipodi="http://sodipodi.sourceforge.net/DTD/sodipodi-0.dtd"
   xmlns="http://www.w3.org/2000/svg"
   xmlns:svg="http://www.w3.org/2000/svg"
   xmlns:rdf="http://www.w3.org/1999/02/22-rdf-syntax-ns#"
   xmlns:cc="http://creativecommons.org/ns#"
   xmlns:dc="http://purl.org/dc/elements/1.1/"
   xmlns:sketch="http://www.bohemiancoding.com/sketch/ns"><defs
   id="defs28" /><sodipodi:namedview
   id="namedview26"
   pagecolor="#ffffff"
   bordercolor="#999999"
   borderopacity="1"
   inkscape:pageshadow="0"
   inkscape:pageopacity="0"
   inkscape:pagecheckerboard="0"
   showgrid="false"
   fit-margin-top="0"
   fit-margin-left="0"
   fit-margin-right="0"
   fit-margin-bottom="0"
   inkscape:zoom="1.014862"
   inkscape:cx="300.04079"
   inkscape:cy="178.84205"
   inkscape:window-width="1920"
   inkscape:window-height="1009"
   inkscape:window-x="-8"
   inkscape:window-y="-8"
   inkscape:window-maximized="1"
   inkscape:current-layer="Layer_1" />
<title
   id="title2">Slice 1</title>
<desc
   id="desc4">Created with Sketch.</desc>
<g
   id="Page-1"
   sketch:type="MSPage"
   transform="translate(-75,-55.998)">
	<g
   id="maestro"
   sketch:type="MSLayerGroup">
		<path
   id="Fill-1"
   sketch:type="MSShapeGroup"
   fill="#d9222a"
   d="m 675,235.506 c 0,99.133 -80.351,179.496 -179.483,179.496 -99.121,0 -179.479,-80.362 -179.479,-179.496 0,-99.142 80.358,-179.508 179.479,-179.508 99.133,0 179.483,80.367 179.483,179.508" />
		<path
   id="Fill-2"
   sketch:type="MSShapeGroup"
   fill="#0097d0"
   d="m 356.87,349.49 c -4.958,-6.014 -9.524,-12.359 -13.675,-19.009 h 63.612 c 3.817,-6.097 7.263,-12.442 10.342,-19.013 h -84.292 c -2.87,-6.15 -5.425,-12.492 -7.596,-19 h 99.476 c 5.987,-17.904 9.229,-37.05 9.229,-56.962 0,-13.046 -1.392,-25.763 -4.028,-38.013 H 320.074 c 1.392,-6.479 3.142,-12.816 5.209,-19.008 h 99.441 c -2.184,-6.508 -4.721,-12.85 -7.592,-19.004 h -84.254 c 3.075,-6.563 6.529,-12.904 10.337,-19.009 h 63.571 c -4.146,-6.629 -8.725,-12.975 -13.671,-18.991 H 356.89 c 5.57,-6.767 11.629,-13.117 18.112,-19 C 343.148,73.597 300.864,55.998 254.485,55.998 155.359,55.998 75,136.365 75,235.506 c 0,99.133 80.358,179.496 179.487,179.496 46.388,0 88.666,-17.596 120.517,-46.475 6.496,-5.893 12.559,-12.259 18.133,-19.037 H 356.87" />
		<path
   id="Fill-3"
   sketch:type="MSShapeGroup"
   d="m 651.074,335.544 c 0,-3.2 2.596,-5.796 5.801,-5.796 3.199,0 5.791,2.596 5.791,5.796 0,3.204 -2.592,5.8 -5.791,5.8 -3.205,0 -5.801,-2.596 -5.801,-5.8 z m 5.801,4.408 c 2.433,0 4.403,-1.967 4.403,-4.408 0,-2.434 -1.971,-4.396 -4.403,-4.396 -2.434,0 -4.409,1.962 -4.409,4.396 0,2.441 1.976,4.408 4.409,4.408 z m -0.788,-1.862 h -1.184 v -5.092 h 2.15 c 0.446,0 0.904,0.004 1.3,0.258 0.417,0.283 0.646,0.775 0.646,1.271 0,0.583 -0.338,1.112 -0.88,1.316 l 0.934,2.246 h -1.316 l -0.775,-2.009 h -0.875 z m 0,-2.879 h 0.658 c 0.246,0 0.505,0.016 0.726,-0.101 0.195,-0.129 0.3,-0.366 0.3,-0.592 0,-0.188 -0.125,-0.417 -0.288,-0.513 -0.212,-0.125 -0.541,-0.1 -0.762,-0.1 h -0.634 z" />
		<path
   id="Fill-4"
   sketch:type="MSShapeGroup"
   d="m 372.446,284.006 c -7.671,2.033 -15.088,3.025 -22.929,3.009 -25.017,-0.024 -38.046,-11.417 -38.046,-33.2 0,-25.458 16.587,-44.183 39.1,-44.183 18.417,0 30.175,10.5 30.175,26.946 0,5.458 -0.796,10.771 -2.745,18.296 h -44.488 c -1.583,10.633 6.188,15.305 19.413,15.305 7.925,0 15.092,-1.426 23.024,-4.613 z m -11.963,-44.15 c 0,-1.608 2.476,-13.034 -10.399,-13.284 -7.108,0 -12.208,4.725 -14.271,13.284 z" />
		<path
   id="Fill-5"
   sketch:type="MSShapeGroup"
   d="m 387.517,234.865 c 0,9.404 5.296,15.9 17.329,20.737 9.199,3.771 10.649,4.859 10.649,8.221 0,4.663 -4.066,6.805 -13.092,6.746 -6.778,-0.05 -12.962,-0.871 -20.262,-2.896 l -3.229,17.154 c 6.487,1.504 15.588,2 23.65,2.188 24.024,0 35.116,-7.866 35.116,-24.866 0,-10.217 -4.625,-16.234 -16.033,-20.713 -9.538,-3.809 -10.658,-4.638 -10.658,-8.083 0,-4.05 3.779,-6.1 11.149,-6.1 4.463,0 10.579,0.413 16.38,1.108 l 3.258,-17.242 c -5.912,-0.825 -14.883,-1.483 -20.075,-1.483 -25.449,-0.001 -34.257,11.458 -34.182,25.229" />
		<path
   id="Fill-6"
   sketch:type="MSShapeGroup"
   d="m 299.275,285.785 h -18.662 l 0.445,-7.82 c -5.691,6.17 -13.271,9.041 -23.558,9.041 -12.175,0 -20.517,-8.324 -20.517,-20.295 0,-18.196 14.5,-28.692 39.429,-28.692 2.563,0 5.821,0.192 9.167,0.563 0.691,-2.433 0.879,-3.479 0.879,-4.808 0,-4.979 -3.921,-6.813 -14.412,-6.813 -10.342,0.042 -17.321,1.571 -23.796,3.313 l 3.188,-16.7 c 11.195,-2.846 18.529,-3.941 26.825,-3.941 19.304,0 29.499,7.566 29.499,21.796 0.167,3.795 -1.158,11.413 -1.82,14.746 -0.759,4.852 -6.109,32.973 -6.667,39.61 z m -16.379,-33.191 c -2.366,-0.242 -3.396,-0.313 -5.013,-0.313 -12.729,0 -19.183,3.787 -19.183,11.267 0,4.692 3.149,7.634 8.058,7.634 9.147,0 15.75,-7.651 16.138,-18.588 z" />
		<path
   id="Fill-7"
   sketch:type="MSShapeGroup"
   d="m 477.004,284.606 c -6.125,1.679 -10.896,2.408 -16.059,2.408 -11.434,0 -17.675,-5.842 -17.675,-16.25 -0.358,-2.858 2.434,-16.059 3.066,-19.737 0.634,-3.691 10.538,-57.492 10.538,-57.492 h 22.212 l -3.362,17.8 h 11.392 l -3.096,18.171 h -11.441 c 0,0 -6.279,31.529 -6.279,33.933 0,3.825 2.316,5.488 7.633,5.488 2.546,0 4.509,-0.238 6.029,-0.692 l -2.958,16.371" />
		<path
   id="Fill-8"
   sketch:type="MSShapeGroup"
   d="m 576.25,209.631 c -16.279,0 -29,6.7 -36.388,17.892 l 6.412,-16.596 c -11.816,-4.337 -19.434,1.85 -26.325,10.65 0,0 -1.154,1.462 -2.3,2.8 v -13.05 h -20.858 c -2.825,23.029 -7.82,46.379 -11.729,69.446 l -0.942,5.021 h 22.438 c 2.125,-11.708 3.875,-21.213 5.617,-28.788 4.767,-20.787 12.787,-27.141 24.829,-24.333 -2.779,5.979 -4.305,12.892 -4.305,20.554 0,18.58 10.092,33.788 35.15,33.788 25.287,0 43.596,-13.509 43.596,-44.309 10e-4,-18.579 -12.2,-33.075 -35.195,-33.075 z m -6.529,59.316 c -7.926,0.125 -12.729,-6.524 -12.729,-16.471 0,-11.791 7.013,-25.112 18.275,-25.112 9.087,0 12.199,7.204 12.199,14.879 0,16.78 -6.875,26.704 -17.745,26.704 z" />
		<path
   id="Fill-9"
   sketch:type="MSShapeGroup"
   d="m 226.53,285.794 h -22.342 l 13.279,-69.954 -30.571,69.954 H 166.53 l -3.726,-69.55 -13.32,69.55 h -20.271 l 17.267,-90.996 h 34.913 l 2.912,50.726 22.117,-50.726 h 37.721 l -17.613,90.996" />
		<path
   id="Fill-10"
   sketch:type="MSShapeGroup"
   fill="#ffffff"
   d="m 613.15,274.385 c 0,-3.195 2.596,-5.795 5.796,-5.795 3.204,0 5.796,2.6 5.796,5.795 0,3.209 -2.592,5.805 -5.796,5.805 -3.201,-10e-4 -5.796,-2.596 -5.796,-5.805 z m 5.796,4.413 c 2.434,0 4.408,-1.979 4.408,-4.413 0,-2.433 -1.975,-4.403 -4.408,-4.403 -2.433,0 -4.408,1.971 -4.408,4.403 -10e-4,2.433 1.974,4.413 4.408,4.413 z m -0.784,-1.866 h -1.188 v -5.084 h 2.15 c 0.449,0 0.908,0 1.304,0.25 0.408,0.279 0.646,0.768 0.646,1.271 0,0.578 -0.337,1.116 -0.883,1.316 l 0.934,2.246 h -1.317 l -0.771,-2.009 h -0.875 z m 0,-2.888 h 0.658 c 0.242,0 0.504,0.017 0.725,-0.097 0.196,-0.133 0.296,-0.357 0.296,-0.587 0,-0.196 -0.12,-0.417 -0.283,-0.513 -0.212,-0.129 -0.541,-0.096 -0.763,-0.096 h -0.633 z" />
		<path
   id="Fill-11"
   sketch:type="MSShapeGroup"
   fill="#ffffff"
   d="m 378.054,278.398 c -7.667,2.033 -15.088,3.029 -22.925,3.012 -25.017,-0.025 -38.046,-11.42 -38.046,-33.208 0,-25.45 16.579,-44.179 39.096,-44.179 18.421,0 30.175,10.496 30.175,26.942 0,5.467 -0.8,10.771 -2.741,18.3 h -44.487 c -1.584,10.629 6.179,15.308 19.408,15.308 7.925,0 15.087,-1.424 23.029,-4.616 z m -11.963,-44.15 c 0,-1.604 2.472,-13.033 -10.399,-13.279 -7.108,0 -12.204,4.729 -14.271,13.279 z" />
		<path
   id="Fill-12"
   sketch:type="MSShapeGroup"
   fill="#ffffff"
   d="m 393.129,229.252 c 0,9.408 5.287,15.9 17.325,20.746 9.204,3.767 10.649,4.858 10.649,8.213 0,4.666 -4.066,6.808 -13.087,6.75 -6.784,-0.047 -12.967,-0.871 -20.263,-2.896 l -3.237,17.146 c 6.491,1.516 15.596,2.012 23.653,2.199 24.025,0 35.121,-7.871 35.121,-24.871 0,-10.217 -4.629,-16.236 -16.041,-20.712 -9.538,-3.809 -10.654,-4.638 -10.654,-8.083 0,-4.05 3.783,-6.1 11.146,-6.1 4.471,0 10.583,0.417 16.388,1.113 l 3.25,-17.246 c -5.913,-0.825 -14.879,-1.483 -20.066,-1.483 -25.459,-0.001 -34.263,11.453 -34.184,25.224" />
		<path
   id="Fill-13"
   sketch:type="MSShapeGroup"
   fill="#ffffff"
   d="m 304.887,280.182 h -18.666 l 0.45,-7.821 c -5.696,6.158 -13.275,9.033 -23.559,9.033 -12.175,0 -20.521,-8.325 -20.521,-20.287 0,-18.204 14.495,-28.696 39.429,-28.696 2.563,0 5.816,0.192 9.171,0.563 0.691,-2.433 0.875,-3.475 0.875,-4.808 0,-4.983 -3.917,-6.813 -14.408,-6.813 -10.342,0.042 -17.321,1.575 -23.796,3.313 l 3.184,-16.696 c 11.199,-2.85 18.529,-3.946 26.829,-3.946 19.304,0 29.495,7.567 29.495,21.792 0.167,3.8 -1.158,11.412 -1.816,14.754 -0.763,4.849 -6.112,32.969 -6.667,39.612 z M 288.5,246.985 c -2.358,-0.245 -3.392,-0.313 -5.013,-0.313 -12.721,0 -19.18,3.788 -19.18,11.267 0,4.695 3.154,7.633 8.055,7.633 9.155,0 15.758,-7.653 16.138,-18.587 z" />
		<path
   id="Fill-14"
   sketch:type="MSShapeGroup"
   fill="#ffffff"
   d="m 482.608,279.002 c -6.12,1.676 -10.896,2.408 -16.054,2.408 -11.434,0 -17.671,-5.846 -17.671,-16.254 -0.362,-2.854 2.434,-16.059 3.063,-19.737 0.634,-3.692 10.537,-57.492 10.537,-57.492 h 22.209 l -3.354,17.8 h 11.392 l -3.096,18.171 h -11.441 c 0,0 -6.283,31.53 -6.283,33.933 0,3.825 2.32,5.479 7.633,5.479 2.542,0 4.509,-0.229 6.029,-0.691 l -2.964,16.383" />
		<path
   id="Fill-15"
   sketch:type="MSShapeGroup"
   fill="#ffffff"
   d="m 593.079,236.635 c 0,16.775 -6.88,26.709 -17.755,26.709 -7.921,0.112 -12.725,-6.525 -12.725,-16.475 0,-11.792 7.008,-25.113 18.271,-25.113 9.092,0 12.209,7.213 12.209,14.879 z m 23.979,0.467 c 0,-18.579 -12.208,-33.079 -35.195,-33.079 -26.45,0 -43.55,17.625 -43.55,43.596 0,18.578 10.083,33.791 35.149,33.791 25.288,0 43.596,-13.512 43.596,-44.308 z" />
		<path
   id="Fill-16"
   sketch:type="MSShapeGroup"
   fill="#ffffff"
   d="m 502.396,205.719 c -2.821,23.029 -7.816,46.375 -11.721,69.45 l -0.946,5.021 h 22.434 c 8.088,-44.558 10.8,-57.254 27.741,-52.783 l 8.15,-21.087 c -11.816,-4.337 -19.425,1.854 -26.309,10.658 0.621,-3.962 1.792,-7.783 1.509,-11.258 h -20.858" />
		<path
   id="Fill-17"
   sketch:type="MSShapeGroup"
   fill="#ffffff"
   d="M 232.138,280.189 H 209.8 l 13.275,-69.958 -30.575,69.958 h -20.362 l -3.726,-69.554 -13.32,69.554 h -20.271 l 17.263,-91 h 34.921 l 1.846,56.334 24.575,-56.334 h 36.325 l -17.613,91" />
	</g>
</g>
<metadata
   id="metadata845"><rdf:RDF><cc:Work
       rdf:about=""><dc:title>Slice 1</dc:title></cc:Work></rdf:RDF></metadata></svg>
