<?xml version="1.0" encoding="UTF-8" standalone="no"?>
<!-- Generator: Adobe Illustrator 16.0.0, SVG Export Plug-In . SVG Version: 6.00 Build 0)  -->

<svg
   version="1.1"
   id="Layer_1"
   x="0px"
   y="0px"
   width="600"
   height="359.008"
   viewBox="0 0 600 359.008"
   enable-background="new 0 0 750 471"
   xml:space="preserve"
   sodipodi:docname="mastercard.svg"
   inkscape:version="1.1.1 (3bf5ae0d25, 2021-09-20)"
   xmlns:inkscape="http://www.inkscape.org/namespaces/inkscape"
   xmlns:sodipodi="http://sodipodi.sourceforge.net/DTD/sodipodi-0.dtd"
   xmlns="http://www.w3.org/2000/svg"
   xmlns:svg="http://www.w3.org/2000/svg"
   xmlns:rdf="http://www.w3.org/1999/02/22-rdf-syntax-ns#"
   xmlns:cc="http://creativecommons.org/ns#"
   xmlns:dc="http://purl.org/dc/elements/1.1/"
   xmlns:sketch="http://www.bohemiancoding.com/sketch/ns"><defs
   id="defs33" /><sodipodi:namedview
   id="namedview31"
   pagecolor="#ffffff"
   bordercolor="#999999"
   borderopacity="1"
   inkscape:pageshadow="0"
   inkscape:pageopacity="0"
   inkscape:pagecheckerboard="0"
   showgrid="false"
   fit-margin-top="0"
   fit-margin-left="0"
   fit-margin-right="0"
   fit-margin-bottom="0"
   inkscape:zoom="1.014862"
   inkscape:cx="300.04079"
   inkscape:cy="178.84205"
   inkscape:window-width="1920"
   inkscape:window-height="1009"
   inkscape:window-x="-8"
   inkscape:window-y="-8"
   inkscape:window-maximized="1"
   inkscape:current-layer="Layer_1" />
<title
   id="title2">Slice 1</title>
<desc
   id="desc4">Created with Sketch.</desc>
<g
   id="Page-1"
   sketch:type="MSPage"
   transform="translate(-75,-55.996)">
	<g
   id="mastercard"
   sketch:type="MSLayerGroup">
		<path
   id="Fill-1"
   sketch:type="MSShapeGroup"
   fill="#d9222a"
   d="m 434.008,235.5 c 0,99.142 -80.371,179.504 -179.508,179.504 C 155.363,415.004 75,334.642 75,235.5 75,136.367 155.362,55.996 254.5,55.996 c 99.137,0 179.508,80.371 179.508,179.504" />
		<path
   id="Fill-2"
   sketch:type="MSShapeGroup"
   fill="#ee9f2d"
   d="m 495.491,55.996 c -46.379,0 -88.642,17.596 -120.5,46.467 -6.487,5.883 -12.546,12.238 -18.125,18.996 h 36.267 c 4.958,6.029 9.525,12.371 13.684,19.012 h -63.634 c -3.813,6.104 -7.274,12.446 -10.342,19.008 h 84.313 c 2.88,6.159 5.421,12.496 7.601,19.004 h -99.513 c -2.075,6.191 -3.821,12.529 -5.217,19.008 h 109.941 c 2.638,12.25 4.042,24.967 4.042,38.008 0,19.934 -3.254,39.112 -9.254,57.021 h -99.513 c 2.175,6.512 4.717,12.854 7.596,19.008 h 84.316 c -3.074,6.563 -6.528,12.904 -10.346,19.012 h -63.625 c 4.154,6.63 8.729,12.98 13.684,18.996 h 36.259 c -5.571,6.771 -11.634,13.134 -18.13,19.013 31.858,28.866 74.117,46.454 120.496,46.454 C 594.629,415.004 675,334.642 675,235.5 675,136.371 594.629,55.996 495.491,55.996" />
		<path
   id="Fill-3"
   sketch:type="MSShapeGroup"
   d="m 651.074,335.559 c 0,-3.2 2.592,-5.801 5.796,-5.801 3.204,0 5.796,2.601 5.796,5.801 0,3.199 -2.592,5.8 -5.796,5.8 -3.204,0 -5.796,-2.601 -5.796,-5.8 z m 5.796,4.408 c 2.434,0 4.408,-1.975 4.408,-4.408 0,-2.438 -1.975,-4.404 -4.408,-4.404 -2.438,0 -4.404,1.967 -4.404,4.404 0,2.433 1.967,4.408 4.404,4.408 z m -0.783,-1.859 H 654.9 v -5.096 h 2.15 c 0.45,0 0.908,0 1.304,0.254 0.413,0.279 0.646,0.771 0.646,1.279 0,0.571 -0.338,1.104 -0.884,1.313 l 0.938,2.25 h -1.316 l -0.779,-2.017 h -0.871 v 2.017 z m 0,-2.891 h 0.658 c 0.246,0 0.505,0.021 0.726,-0.1 0.195,-0.125 0.296,-0.359 0.296,-0.584 0,-0.195 -0.121,-0.421 -0.288,-0.517 -0.208,-0.129 -0.537,-0.101 -0.758,-0.101 h -0.634 z" />
		<path
   id="Fill-4"
   sketch:type="MSShapeGroup"
   d="m 212.587,255.154 c -2.046,-0.238 -2.945,-0.301 -4.35,-0.301 -11.046,0 -16.638,3.788 -16.638,11.268 0,4.612 2.729,7.545 6.987,7.545 7.939,0 13.659,-7.558 14.001,-18.512 z m 14.171,32.996 h -16.146 l 0.371,-7.676 c -4.926,6.066 -11.496,8.95 -20.426,8.95 -10.563,0 -17.804,-8.25 -17.804,-20.229 0,-18.024 12.596,-28.541 34.217,-28.541 2.208,0 5.042,0.199 7.941,0.57 0.604,-2.441 0.763,-3.487 0.763,-4.8 0,-4.908 -3.396,-6.737 -12.5,-6.737 -9.533,-0.108 -17.396,2.271 -20.625,3.333 0.204,-1.229 2.7,-16.659 2.7,-16.659 9.712,-2.846 16.116,-3.917 23.325,-3.917 16.732,0 25.596,7.513 25.579,21.712 0.033,3.805 -0.597,8.5 -1.579,14.671 -1.691,10.732 -5.32,33.719 -5.816,39.323 z" />
		<path
   id="Fill-5"
   sketch:type="MSShapeGroup"
   d="m 164.6,288.15 h -19.487 l 11.162,-69.996 -24.925,69.996 h -13.279 l -1.642,-69.596 -11.733,69.596 H 86.454 l 15.237,-91.055 h 28.021 l 1.7,50.967 17.092,-50.967 h 31.167 L 164.6,288.15" />
		<path
   id="Fill-6"
   sketch:type="MSShapeGroup"
   d="m 519.574,255.154 c -2.037,-0.238 -2.941,-0.301 -4.342,-0.301 -11.041,0 -16.633,3.788 -16.633,11.268 0,4.612 2.725,7.545 6.983,7.545 7.939,0 13.663,-7.558 13.992,-18.512 z m 14.184,32.996 h -16.146 l 0.366,-7.676 c -4.925,6.066 -11.5,8.95 -20.421,8.95 -10.566,0 -17.8,-8.25 -17.8,-20.229 0,-18.024 12.588,-28.541 34.213,-28.541 2.208,0 5.037,0.199 7.933,0.57 0.604,-2.441 0.763,-3.487 0.763,-4.8 0,-4.908 -3.392,-6.737 -12.496,-6.737 -9.533,-0.108 -17.387,2.271 -20.629,3.333 0.204,-1.229 2.709,-16.659 2.709,-16.659 9.712,-2.846 16.112,-3.917 23.313,-3.917 16.741,0 25.604,7.513 25.587,21.712 0.033,3.805 -0.596,8.5 -1.579,14.671 -1.684,10.732 -5.321,33.719 -5.813,39.323 z" />
		<path
   id="Fill-7"
   sketch:type="MSShapeGroup"
   d="m 313.366,287.025 c -5.333,1.679 -9.491,2.399 -14,2.399 -9.962,0 -15.399,-5.725 -15.399,-16.267 -0.142,-3.271 1.433,-11.879 2.671,-19.737 1.125,-6.917 8.449,-50.529 8.449,-50.529 h 19.371 l -2.263,11.208 h 11.7 l -2.642,17.796 h -11.742 c -2.25,14.083 -5.454,31.625 -5.491,33.95 0,3.816 2.037,5.483 6.671,5.483 2.221,0 3.941,-0.226 5.254,-0.7 l -2.579,16.397" />
		<path
   id="Fill-8"
   sketch:type="MSShapeGroup"
   d="m 372.758,286.425 c -6.654,2.034 -13.075,3.017 -19.879,3 -21.684,-0.021 -32.987,-11.346 -32.987,-33.033 0,-25.313 14.379,-43.946 33.899,-43.946 15.971,0 26.171,10.433 26.171,26.796 0,5.429 -0.7,10.729 -2.388,18.212 H 339 c -1.305,10.741 5.57,15.217 16.837,15.217 6.934,0 13.188,-1.429 20.142,-4.663 z m -10.888,-43.9 c 0.108,-1.542 2.055,-13.217 -9.013,-13.217 -6.17,0 -10.583,4.704 -12.379,13.217 z" />
		<path
   id="Fill-9"
   sketch:type="MSShapeGroup"
   d="m 238.446,237.508 c 0,9.367 4.542,15.826 14.842,20.676 7.892,3.708 9.112,4.809 9.112,8.17 0,4.617 -3.479,6.701 -11.191,6.701 -5.813,0 -11.221,-0.908 -17.458,-2.922 0,0 -2.563,16.321 -2.68,17.101 4.43,0.967 8.38,1.862 20.279,2.191 20.563,0 30.059,-7.829 30.059,-24.75 0,-10.175 -3.976,-16.146 -13.737,-20.634 -8.171,-3.75 -9.108,-4.587 -9.108,-8.045 0,-4.004 3.237,-6.046 9.537,-6.046 3.825,0 9.05,0.408 14,1.112 l 2.775,-17.175 c -5.046,-0.8 -12.696,-1.442 -17.15,-1.442 -21.801,0.001 -29.347,11.388 -29.28,25.063" />
		<path
   id="Fill-10"
   sketch:type="MSShapeGroup"
   d="m 467.533,214.392 c 5.412,0 10.458,1.421 17.412,4.921 l 3.188,-19.763 c -2.854,-1.121 -12.904,-7.7 -21.417,-7.7 -13.041,0 -24.066,6.471 -31.82,17.15 -11.309,-3.746 -15.958,3.825 -21.658,11.367 l -5.063,1.179 c 0.383,-2.483 0.729,-4.95 0.612,-7.446 h -17.896 c -2.446,22.917 -6.779,46.128 -10.171,69.075 l -0.884,4.976 h 19.496 c 3.254,-21.143 5.037,-34.68 6.121,-43.842 l 7.341,-4.084 c 1.097,-4.078 4.529,-5.458 11.417,-5.291 -0.899,4.833 -1.383,9.916 -1.383,15.184 0,24.225 13.07,39.308 34.05,39.308 5.404,0 10.041,-0.712 17.221,-2.658 l 3.429,-20.759 c -6.458,3.18 -11.758,4.676 -16.558,4.676 -11.329,0 -18.184,-8.363 -18.184,-22.184 10e-4,-20.051 10.197,-34.109 24.747,-34.109" />
		<path
   id="Fill-12"
   sketch:type="MSShapeGroup"
   fill="#ffffff"
   d="m 170.208,282.742 h -19.491 l 11.171,-69.988 -24.926,69.988 h -13.283 l -1.642,-69.588 -11.733,69.588 H 92.063 L 107.3,191.7 h 28.021 l 0.788,56.362 18.904,-56.362 h 30.267 l -15.072,91.042" />
		<path
   id="Fill-11"
   sketch:type="MSShapeGroup"
   d="m 632.521,197.096 -4.321,26.309 c -5.329,-7.013 -11.054,-12.088 -18.612,-12.088 -9.833,0 -18.783,7.455 -24.642,18.425 -8.158,-1.692 -16.596,-4.563 -16.596,-4.563 l -0.004,0.067 c 0.658,-6.134 0.921,-9.875 0.862,-11.146 h -17.9 c -2.438,22.917 -6.771,46.128 -10.158,69.075 l -0.892,4.976 h 19.492 c 2.633,-17.096 4.649,-31.292 6.133,-42.551 6.658,-6.016 9.992,-11.266 16.721,-10.916 -2.979,7.204 -4.725,15.504 -4.725,24.017 0,18.513 9.366,30.725 23.533,30.725 7.142,0 12.621,-2.462 17.967,-8.171 l -0.913,6.884 H 636.9 l 14.842,-91.042 h -19.221 z m -24.371,73.941 c -6.633,0 -9.983,-4.908 -9.983,-14.596 0,-14.554 6.271,-24.875 15.112,-24.875 6.696,0 10.321,5.104 10.321,14.509 0,14.679 -6.371,24.962 -15.45,24.962 z" />
		<path
   id="Fill-13"
   sketch:type="MSShapeGroup"
   fill="#ffffff"
   d="m 218.192,249.758 c -2.042,-0.236 -2.946,-0.299 -4.346,-0.299 -11.046,0 -16.634,3.787 -16.634,11.266 0,4.604 2.729,7.547 6.979,7.547 7.947,-10e-4 13.668,-7.559 14.001,-18.514 z m 14.178,32.984 h -16.146 l 0.367,-7.663 c -4.921,6.054 -11.5,8.95 -20.421,8.95 -10.567,0 -17.805,-8.25 -17.805,-20.229 0,-18.033 12.592,-28.542 34.217,-28.542 2.208,0 5.042,0.2 7.938,0.571 0.604,-2.441 0.763,-3.487 0.763,-4.808 0,-4.909 -3.392,-6.729 -12.496,-6.729 -9.537,-0.108 -17.396,2.271 -20.629,3.321 0.204,-1.225 2.7,-16.637 2.7,-16.637 9.708,-2.858 16.12,-3.929 23.32,-3.929 16.737,0 25.604,7.517 25.588,21.704 0.029,3.821 -0.604,8.513 -1.584,14.675 -1.687,10.724 -5.319,33.724 -5.812,39.316 z" />
		<path
   id="Fill-14"
   sketch:type="MSShapeGroup"
   fill="#ffffff"
   d="m 493.745,194.15 -3.191,19.767 c -6.95,-3.496 -12,-4.92 -17.408,-4.92 -14.55,0 -24.75,14.058 -24.75,34.107 0,13.821 6.858,22.18 18.184,22.18 4.8,0 10.096,-1.492 16.554,-4.675 l -3.421,20.75 c -7.184,1.958 -11.816,2.671 -17.225,2.671 -20.976,0 -34.05,-15.084 -34.05,-39.309 0,-32.55 18.058,-55.3 43.887,-55.3 8.508,0 18.562,3.608 21.42,4.729" />
		<path
   id="Fill-15"
   sketch:type="MSShapeGroup"
   fill="#ffffff"
   d="m 525.188,249.758 c -2.042,-0.236 -2.942,-0.299 -4.347,-0.299 -11.041,0 -16.633,3.787 -16.633,11.266 0,4.604 2.729,7.547 6.983,7.547 7.938,-10e-4 13.663,-7.559 13.997,-18.514 z m 14.178,32.984 h -16.15 l 0.371,-7.663 c -4.925,6.054 -11.5,8.95 -20.421,8.95 -10.563,0 -17.804,-8.25 -17.804,-20.229 0,-18.033 12.596,-28.542 34.212,-28.542 2.213,0 5.042,0.2 7.942,0.571 0.6,-2.441 0.762,-3.487 0.762,-4.808 0,-4.909 -3.392,-6.729 -12.495,-6.729 -9.533,-0.108 -17.396,2.271 -20.63,3.321 0.204,-1.225 2.704,-16.637 2.704,-16.637 9.709,-2.858 16.117,-3.929 23.317,-3.929 16.741,0 25.604,7.517 25.583,21.704 0.033,3.821 -0.596,8.513 -1.579,14.675 -1.683,10.724 -5.324,33.724 -5.812,39.316 z" />
		<path
   id="Fill-16"
   sketch:type="MSShapeGroup"
   fill="#ffffff"
   d="m 318.975,281.621 c -5.338,1.679 -9.496,2.408 -14,2.408 -9.962,0 -15.399,-5.725 -15.399,-16.267 -0.138,-3.279 1.438,-11.88 2.675,-19.737 1.12,-6.926 8.445,-50.534 8.445,-50.534 h 19.367 l -2.259,11.212 h 9.941 l -2.646,17.788 h -9.975 c -2.25,14.092 -5.463,31.621 -5.496,33.95 0,3.83 2.041,5.483 6.671,5.483 2.221,0 3.938,-0.216 5.254,-0.691 l -2.578,16.388" />
		<path
   id="Fill-17"
   sketch:type="MSShapeGroup"
   fill="#ffffff"
   d="m 378.366,281.029 c -6.65,2.033 -13.079,3.012 -19.879,3 -21.684,-0.021 -32.987,-11.346 -32.987,-33.033 0,-25.321 14.379,-43.95 33.899,-43.95 15.971,0 26.171,10.429 26.171,26.8 0,5.434 -0.7,10.733 -2.383,18.213 h -38.575 c -1.305,10.741 5.57,15.221 16.837,15.221 6.93,0 13.188,-1.434 20.138,-4.676 z m -10.891,-43.912 c 0.116,-1.538 2.059,-13.217 -9.013,-13.217 -6.167,0 -10.579,4.717 -12.375,13.217 z" />
		<path
   id="Fill-18"
   sketch:type="MSShapeGroup"
   fill="#ffffff"
   d="m 244.054,232.112 c 0,9.366 4.542,15.817 14.842,20.675 7.892,3.709 9.112,4.813 9.112,8.172 0,4.616 -3.483,6.699 -11.188,6.699 -5.816,0 -11.225,-0.908 -17.467,-2.921 0,0 -2.554,16.321 -2.671,17.101 4.421,0.967 8.375,1.85 20.275,2.191 20.566,0 30.059,-7.829 30.059,-24.746 0,-10.18 -3.971,-16.15 -13.737,-20.637 -8.167,-3.759 -9.113,-4.584 -9.113,-8.046 0,-4 3.246,-6.059 9.542,-6.059 3.821,0 9.046,0.421 14.004,1.125 l 2.771,-17.179 c -5.042,-0.8 -12.692,-1.441 -17.146,-1.441 -21.804,0 -29.346,11.379 -29.283,25.066" />
		<path
   id="Fill-19"
   sketch:type="MSShapeGroup"
   fill="#ffffff"
   d="M 642.508,282.742 H 624.07 l 0.917,-6.893 c -5.346,5.717 -10.825,8.18 -17.967,8.18 -14.167,0 -23.529,-12.213 -23.529,-30.725 0,-24.63 14.521,-45.392 31.708,-45.392 7.559,0 13.279,3.087 18.604,10.096 l 4.325,-26.308 h 19.221 z m -28.746,-17.109 c 9.075,0 15.45,-10.283 15.45,-24.953 0,-9.405 -3.629,-14.509 -10.325,-14.509 -8.837,0 -15.116,10.316 -15.116,24.875 0,9.687 3.358,14.587 9.991,14.587 z" />
		<path
   id="Fill-20"
   sketch:type="MSShapeGroup"
   fill="#ffffff"
   d="m 556.92,208.704 c -2.441,22.917 -6.774,46.13 -10.162,69.063 l -0.892,4.976 h 19.491 c 6.972,-45.275 8.659,-54.117 19.588,-53.009 1.742,-9.267 4.983,-17.383 7.4,-21.479 -8.163,-1.7 -12.721,2.913 -18.688,11.675 0.471,-3.788 1.333,-7.467 1.162,-11.225 H 556.92" />
		<path
   id="Fill-21"
   sketch:type="MSShapeGroup"
   fill="#ffffff"
   d="m 396.5,208.704 c -2.446,22.917 -6.779,46.13 -10.167,69.063 l -0.888,4.976 h 19.5 c 6.963,-45.275 8.646,-54.117 19.571,-53.009 1.75,-9.267 4.991,-17.383 7.399,-21.479 -8.154,-1.7 -12.717,2.913 -18.679,11.675 0.471,-3.788 1.325,-7.467 1.162,-11.225 H 396.5" />
		<path
   id="Fill-22"
   sketch:type="MSShapeGroup"
   fill="#ffffff"
   d="m 651.067,276.945 c 0,-3.212 2.596,-5.799 5.796,-5.799 3.204,0 5.796,2.587 5.796,5.799 0,3.196 -2.592,5.797 -5.796,5.797 -3.201,0 -5.796,-2.6 -5.796,-5.797 z m 5.796,4.405 c 2.438,0 4.404,-1.975 4.404,-4.404 0,-2.433 -1.967,-4.408 -4.404,-4.408 -2.434,0 -4.408,1.976 -4.408,4.408 -0.001,2.429 1.974,4.404 4.408,4.404 z m -0.784,-1.871 h -1.188 v -5.082 h 2.153 c 0.446,0 0.909,0.008 1.296,0.254 0.417,0.283 0.654,0.766 0.654,1.274 0,0.575 -0.337,1.112 -0.888,1.317 l 0.942,2.236 h -1.321 l -0.779,-2.008 h -0.87 v 2.009 z m 0,-2.879 h 0.653 c 0.246,0 0.513,0.018 0.729,-0.1 0.196,-0.125 0.296,-0.362 0.296,-0.588 0,-0.188 -0.116,-0.412 -0.287,-0.524 -0.204,-0.116 -0.542,-0.083 -0.763,-0.083 h -0.629 v 1.295 z" />
	</g>
</g>
<metadata
   id="metadata850"><rdf:RDF><cc:Work
       rdf:about=""><dc:title>Slice 1</dc:title></cc:Work></rdf:RDF></metadata></svg>
