<?xml version="1.0" encoding="UTF-8" standalone="no"?>
<!-- Generator: Adobe Illustrator 16.0.0, SVG Export Plug-In . SVG Version: 6.00 Build 0)  -->

<svg
   version="1.1"
   id="Layer_1"
   x="0px"
   y="0px"
   width="659.60602"
   height="202.07001"
   viewBox="0 0 659.60602 202.07001"
   enable-background="new 0 0 750 471"
   xml:space="preserve"
   sodipodi:docname="visa.svg"
   inkscape:version="1.1.1 (3bf5ae0d25, 2021-09-20)"
   xmlns:inkscape="http://www.inkscape.org/namespaces/inkscape"
   xmlns:sodipodi="http://sodipodi.sourceforge.net/DTD/sodipodi-0.dtd"
   xmlns="http://www.w3.org/2000/svg"
   xmlns:svg="http://www.w3.org/2000/svg"
   xmlns:rdf="http://www.w3.org/1999/02/22-rdf-syntax-ns#"
   xmlns:cc="http://creativecommons.org/ns#"
   xmlns:dc="http://purl.org/dc/elements/1.1/"
   xmlns:sketch="http://www.bohemiancoding.com/sketch/ns"><defs
   id="defs15" /><sodipodi:namedview
   id="namedview13"
   pagecolor="#ffffff"
   bordercolor="#999999"
   borderopacity="1"
   inkscape:pageshadow="0"
   inkscape:pageopacity="0"
   inkscape:pagecheckerboard="0"
   showgrid="false"
   fit-margin-top="0"
   fit-margin-left="0"
   fit-margin-right="0"
   fit-margin-bottom="0"
   inkscape:zoom="1.014862"
   inkscape:cx="329.60146"
   inkscape:cy="100.99895"
   inkscape:window-width="1920"
   inkscape:window-height="1009"
   inkscape:window-x="-8"
   inkscape:window-y="-8"
   inkscape:window-maximized="1"
   inkscape:current-layer="Layer_1" />
<title
   id="title2">Slice 1</title>
<desc
   id="desc4">Created with Sketch.</desc>
<g
   id="visa"
   sketch:type="MSLayerGroup"
   transform="translate(-45.197,-134.465)">
	<path
   id="Shape"
   sketch:type="MSShapeGroup"
   fill="#0e4595"
   d="m 278.198,334.228 33.36,-195.763 h 53.358 l -33.384,195.763 z" />
	<path
   id="path13"
   sketch:type="MSShapeGroup"
   fill="#0e4595"
   d="m 524.307,142.687 c -10.57,-3.966 -27.135,-8.222 -47.822,-8.222 -52.725,0 -89.863,26.551 -90.18,64.604 -0.297,28.129 26.514,43.821 46.754,53.185 20.77,9.597 27.752,15.716 27.652,24.283 -0.133,13.123 -16.586,19.116 -31.924,19.116 -21.355,0 -32.701,-2.967 -50.225,-10.274 l -6.877,-3.112 -7.488,43.823 c 12.463,5.466 35.508,10.199 59.438,10.445 56.09,0 92.502,-26.248 92.916,-66.884 0.199,-22.27 -14.016,-39.216 -44.801,-53.188 -18.65,-9.056 -30.072,-15.099 -29.951,-24.269 0,-8.137 9.668,-16.838 30.559,-16.838 17.447,-0.271 30.088,3.534 39.936,7.5 l 4.781,2.259 7.232,-42.428" />
	<path
   id="Path"
   sketch:type="MSShapeGroup"
   fill="#0e4595"
   d="m 661.615,138.464 h -41.23 c -12.773,0 -22.332,3.486 -27.941,16.234 L 513.2,334.1 h 56.031 c 0,0 9.16,-24.121 11.232,-29.418 6.123,0 60.555,0.084 68.336,0.084 1.596,6.854 6.492,29.334 6.492,29.334 h 49.512 z m -65.417,126.408 c 4.414,-11.279 21.26,-54.724 21.26,-54.724 -0.314,0.521 4.381,-11.334 7.074,-18.684 l 3.607,16.878 c 0,0 10.217,46.729 12.352,56.527 h -44.293 z" />
	<path
   id="path16"
   sketch:type="MSShapeGroup"
   fill="#0e4595"
   d="m 232.903,138.464 -52.239,133.496 -5.565,-27.129 c -9.726,-31.274 -40.025,-65.157 -73.898,-82.12 l 47.767,171.204 56.455,-0.064 84.004,-195.386 -56.524,-0.001" />
	<path
   id="path18"
   sketch:type="MSShapeGroup"
   fill="#f2ae14"
   d="M 131.92,138.464 H 45.879 l -0.682,4.073 c 66.939,16.204 111.232,55.363 129.618,102.415 l -18.709,-89.96 c -3.229,-12.396 -12.597,-16.096 -24.186,-16.528" />
</g>
<metadata
   id="metadata832"><rdf:RDF><cc:Work
       rdf:about=""><dc:title>Slice 1</dc:title></cc:Work></rdf:RDF></metadata></svg>
